name rise32.9588peak41.5061fall63.4684.mot
datacolumns 19
datarows 29
range 1.88332900000000 1.92999400000000
endheader
time	ground_force1_vx	ground_force1_vy	ground_force1_vz	ground_force1_px	ground_force1_py	ground_force1_pz	ground_force2_vx	ground_force2_vy	ground_force2_vz	ground_force2_px	ground_force2_py	ground_force2_pz	ground_torque1_x	ground_torque1_y	ground_torque1_z	ground_torque2_x	ground_torque2_y	ground_torque2_z	
1.88332900000000	-31.46681800000000	813.46925199999998	50.71181500000000	0.11568700000000	0.00000000000000	0.09920100000000	-1.77625500000000	16.27509100000000	2.96435900000000	0.00000000000000	0.00000000000000	0.00000000000000	0.00000000000000	18.01175300000000	0.00000000000000	0.00000000000000	0.90830100000000	0.00000000000000	
1.88499300000000	-31.77895700000000	811.81351900000004	50.57449300000000	0.11502900000000	0.00000000000000	0.09909900000000	-2.23964100000000	21.69869400000000	3.83096500000000	0.00000000000000	0.00000000000000	0.00000000000000	0.00000000000000	17.91559100000000	0.00000000000000	0.00000000000000	1.18786500000000	0.00000000000000	
1.88666200000000	-32.10392500000000	810.03326500000003	50.42043400000000	0.11437400000000	0.00000000000000	0.09899300000000	-2.70698000000000	27.60265900000000	4.73932200000000	0.31996200000000	0.00000000000000	-0.05300300000000	0.00000000000000	17.81947700000000	0.00000000000000	0.00000000000000	2.85790400000000	0.00000000000000	
1.88833100000000	-32.44207800000000	808.12631299999998	50.24935500000000	0.11372100000000	0.00000000000000	0.09888500000000	-3.15975800000000	33.86472300000000	5.66226800000000	0.32501600000000	0.00000000000000	-0.05374400000000	0.00000000000000	17.72351400000000	0.00000000000000	0.00000000000000	3.46211500000000	0.00000000000000	
1.88999100000000	-32.79373100000000	806.09050999999999	50.06099300000000	0.11307000000000	0.00000000000000	0.09877300000000	-3.57975800000000	40.35574200000000	6.57237000000000	0.32955200000000	0.00000000000000	-0.05441800000000	0.00000000000000	17.62779600000000	0.00000000000000	0.00000000000000	4.07060600000000	0.00000000000000	
1.89166100000000	-33.15914600000000	803.92373099999998	49.85510400000000	0.11242200000000	0.00000000000000	0.09865900000000	-3.95033300000000	46.95027200000000	7.44396200000000	0.33364300000000	0.00000000000000	-0.05503700000000	0.00000000000000	17.53241100000000	0.00000000000000	0.00000000000000	4.66688100000000	0.00000000000000	
1.89332700000000	-33.53853400000000	801.62388299999998	49.63146500000000	0.11177600000000	0.00000000000000	0.09854100000000	-4.25745000000000	53.53595400000000	8.25486800000000	0.33734600000000	0.00000000000000	-0.05560900000000	0.00000000000000	17.43744200000000	0.00000000000000	0.00000000000000	5.23620600000000	0.00000000000000	
1.89499600000000	-33.93205400000000	799.18890199999998	49.38987300000000	0.11113100000000	0.00000000000000	0.09842100000000	-4.49040400000000	60.02071100000000	8.98764800000000	0.34071100000000	0.00000000000000	-0.05614000000000	0.00000000000000	17.34296300000000	0.00000000000000	0.00000000000000	5.76648500000000	0.00000000000000	
1.89665900000000	-34.33980700000000	796.61675900000000	49.13014800000000	0.11048800000000	0.00000000000000	0.09829700000000	-4.64216100000000	66.33726400000000	9.63027700000000	0.34377500000000	0.00000000000000	-0.05663900000000	0.00000000000000	17.24904000000000	0.00000000000000	0.00000000000000	6.24880500000000	0.00000000000000	
1.89832900000000	-34.76183600000000	793.90545899999995	48.85213200000000	0.10984600000000	0.00000000000000	0.09817000000000	-4.70936300000000	72.44490600000000	10.17628300000000	0.34657200000000	0.00000000000000	-0.05710800000000	0.00000000000000	17.15573200000000	0.00000000000000	0.00000000000000	6.67763700000000	0.00000000000000	
1.89999000000000	-35.19812200000000	791.05304999999998	48.55569200000000	0.10920500000000	0.00000000000000	0.09804100000000	-4.69202100000000	78.32881200000000	10.62440800000000	0.34912900000000	0.00000000000000	-0.05755200000000	0.00000000000000	17.06309000000000	0.00000000000000	0.00000000000000	7.05072600000000	0.00000000000000	
1.90165800000000	-35.64858600000000	788.05761600000005	48.24071700000000	0.10856600000000	0.00000000000000	0.09790800000000	-4.59299300000000	83.99733100000000	10.97789800000000	0.35146900000000	0.00000000000000	-0.05797500000000	0.00000000000000	16.97115700000000	0.00000000000000	0.00000000000000	7.36873600000000	0.00000000000000	
1.90333300000000	-36.11308000000000	784.91729099999998	47.90712600000000	0.10792600000000	0.00000000000000	0.09777300000000	-4.41732500000000	89.47784299999999	11.24354400000000	0.35361300000000	0.00000000000000	-0.05838000000000	0.00000000000000	16.87996700000000	0.00000000000000	0.00000000000000	7.63470700000000	0.00000000000000	
1.90499800000000	-36.59139200000000	781.63025200000004	47.55486000000000	0.10728700000000	0.00000000000000	0.09763500000000	-4.17151700000000	94.81178300000001	11.43060800000000	0.35557700000000	0.00000000000000	-0.05876800000000	0.00000000000000	16.78954500000000	0.00000000000000	0.00000000000000	7.85342200000000	0.00000000000000	
1.90665900000000	-37.08324000000000	778.19473200000004	47.18388800000000	0.10664800000000	0.00000000000000	0.09749400000000	-3.86281400000000	100.04936400000000	11.54972500000000	0.35737600000000	0.00000000000000	-0.05914300000000	0.00000000000000	16.69990800000000	0.00000000000000	0.00000000000000	8.03073500000000	0.00000000000000	
1.90832500000000	-37.58827100000000	774.60901500000000	46.79420900000000	0.10600900000000	0.00000000000000	0.09735000000000	-3.49855300000000	105.24451100000000	11.61188700000000	0.35902200000000	0.00000000000000	-0.05950600000000	0.00000000000000	16.61106200000000	0.00000000000000	0.00000000000000	8.17293100000000	0.00000000000000	
1.90999100000000	-38.10605800000000	770.87144599999999	46.38584900000000	0.10536800000000	0.00000000000000	0.09720300000000	-3.08561800000000	110.45034800000001	11.62757700000000	0.36052700000000	0.00000000000000	-0.05985900000000	0.00000000000000	16.52300500000000	0.00000000000000	0.00000000000000	8.28617000000000	0.00000000000000	
1.91165800000000	-38.63610400000000	766.98043099999995	45.95886200000000	0.10472700000000	0.00000000000000	0.09705400000000	-2.63003300000000	115.71551300000000	11.60608400000000	0.36190100000000	0.00000000000000	-0.06020200000000	0.00000000000000	16.43572500000000	0.00000000000000	0.00000000000000	8.37602500000000	0.00000000000000	
1.91332800000000	-39.17783200000000	762.93444599999998	45.51333400000000	0.10408300000000	0.00000000000000	0.09690300000000	-2.13668700000000	121.08143400000000	11.55503500000000	0.36315100000000	0.00000000000000	-0.06053800000000	0.00000000000000	16.34920200000000	0.00000000000000	0.00000000000000	8.44716400000000	0.00000000000000	
1.91499300000000	-39.73059300000000	758.73203599999999	45.04938100000000	0.10343800000000	0.00000000000000	0.09674800000000	-1.60919900000000	126.58060700000000	11.48013400000000	0.36428600000000	0.00000000000000	-0.06086600000000	0.00000000000000	16.26340300000000	0.00000000000000	0.00000000000000	8.50314500000000	0.00000000000000	
1.91665700000000	-40.29365700000000	754.37182299999995	44.56715100000000	0.10278900000000	0.00000000000000	0.09659200000000	-1.04991000000000	132.23582600000000	11.38508400000000	0.36531200000000	0.00000000000000	-0.06118800000000	0.00000000000000	16.17828800000000	0.00000000000000	0.00000000000000	8.54634200000000	0.00000000000000	
1.91832500000000	-40.86621800000000	749.85251100000005	44.06682300000000	0.10213800000000	0.00000000000000	0.09643200000000	-0.45996900000000	138.06024700000000	11.27168600000000	0.36623500000000	0.00000000000000	-0.06150500000000	0.00000000000000	16.09380600000000	0.00000000000000	0.00000000000000	8.57797400000000	0.00000000000000	
1.92000100000000	-41.44739000000000	745.17289000000005	43.54860800000000	0.10148300000000	0.00000000000000	0.09627100000000	0.16049800000000	144.05813599999999	11.14005000000000	0.36706100000000	0.00000000000000	-0.06181800000000	0.00000000000000	16.00989600000000	0.00000000000000	0.00000000000000	8.59821700000000	0.00000000000000	
1.92166000000000	-42.03620900000000	740.33184700000004	43.01275100000000	0.10082400000000	0.00000000000000	0.09610800000000	0.81217500000000	150.22610900000001	10.98890500000000	0.36779400000000	0.00000000000000	-0.06212600000000	0.00000000000000	15.92648800000000	0.00000000000000	0.00000000000000	8.60638000000000	0.00000000000000	
1.92332300000000	-42.63163100000000	735.32836299999997	42.45952900000000	0.10016000000000	0.00000000000000	0.09594200000000	1.49631100000000	156.55469700000000	10.81594500000000	0.36844000000000	0.00000000000000	-0.06243000000000	0.00000000000000	15.84349900000000	0.00000000000000	0.00000000000000	8.60111000000000	0.00000000000000	
1.92499000000000	-43.23253500000000	730.16153199999997	41.88925300000000	0.09949100000000	0.00000000000000	0.09577400000000	2.21447800000000	163.03003100000001	10.61820200000000	0.36900100000000	0.00000000000000	-0.06273200000000	0.00000000000000	15.76084100000000	0.00000000000000	0.00000000000000	8.58062200000000	0.00000000000000	
1.92666400000000	-43.83772200000000	724.83055999999999	41.30226800000000	0.09881700000000	0.00000000000000	0.09560400000000	2.96834400000000	169.63553500000000	10.39239000000000	0.36948300000000	0.00000000000000	-0.06303000000000	0.00000000000000	15.67841300000000	0.00000000000000	0.00000000000000	8.54290800000000	0.00000000000000	
1.92832900000000	-44.44591500000000	719.33477600000003	40.69895200000000	0.09813600000000	0.00000000000000	0.09543300000000	3.75947400000000	176.35346999999999	10.13522200000000	0.36988700000000	0.00000000000000	-0.06332500000000	0.00000000000000	15.59610500000000	0.00000000000000	0.00000000000000	8.48594100000000	0.00000000000000	
1.92999400000000	-45.05576200000000	713.67364499999996	40.07971700000000	0.09744800000000	0.00000000000000	0.09526000000000	4.58917100000000	183.16626199999999	9.84366300000000	0.37021900000000	0.00000000000000	-0.06361800000000	0.00000000000000	15.51379800000000	0.00000000000000	0.00000000000000	8.40783300000000	0.00000000000000	
